HIERARCHY
ROOT Hips
{
    OFFSET 0.0 0.0 0.0
    CHANNELS 6 Xposition Yposition Zposition Zrotation Xrotation Yrotation
    JOINT LeftHipJoint
    {
        OFFSET 0.1 0.0 0.0
        CHANNELS 3 Zrotation Xrotation Yrotation
        JOINT LeftUpLeg
        {
            OFFSET 120.3080280478327 0.0 0.0
            CHANNELS 3 Zrotation Xrotation Yrotation
            JOINT LeftLeg
            {
                OFFSET 0.0 0.0 -402.42527121865766
                CHANNELS 3 Zrotation Xrotation Yrotation
                JOINT LeftFoot
                {
                    OFFSET 0.0 0.0 -389.3938392644692
                    CHANNELS 3 Zrotation Xrotation Yrotation
                    End Site
                    {
                        OFFSET 0.0 -0.1 0.0
                    }
                }
            }
        }
    }
    JOINT LowerBack
    {
        OFFSET 0.0 0.0 0.1
        CHANNELS 3 Zrotation Xrotation Yrotation
        JOINT Spine
        {
            OFFSET 0.0 0.0 217.1744104932124
            CHANNELS 3 Zrotation Xrotation Yrotation
            JOINT Spine1
            {
                OFFSET 0.0 0.0 250.45289622889146
                CHANNELS 3 Zrotation Xrotation Yrotation
                JOINT LeftShoulder
                {
                    OFFSET 0.1 0.0 0.0
                    CHANNELS 3 Zrotation Xrotation Yrotation
                    JOINT LeftArm
                    {
                        OFFSET 139.66040269904425 0.0 0.0
                        CHANNELS 3 Zrotation Xrotation Yrotation
                        JOINT LeftForeArm
                        {
                            OFFSET 252.5614598644354 0.0 0.0
                            CHANNELS 3 Zrotation Xrotation Yrotation
                            JOINT LeftHand
                            {
                                OFFSET 244.52565372849318 0.0 0.0
                                CHANNELS 3 Zrotation Xrotation Yrotation
                                End Site
                                {
                                    OFFSET 0.1 0.0 0.0
                                }
                            }
                        }
                    }
                }
                JOINT Neck
                {
                    OFFSET 0.0 0.0 0.1
                    CHANNELS 3 Zrotation Xrotation Yrotation
                    JOINT Neck1
                    {
                        OFFSET 0.0 0.0 106.21420999218539
                        CHANNELS 3 Zrotation Xrotation Yrotation
                        End Site
                        {
                            OFFSET 0.0 0.0 117.8782911624236
                        }
                    }
                }
                JOINT RightShoulder
                {
                    OFFSET -0.1 0.0 0.0
                    CHANNELS 3 Zrotation Xrotation Yrotation
                    JOINT RightArm
                    {
                        OFFSET -139.66040269904425 0.0 0.0
                        CHANNELS 3 Zrotation Xrotation Yrotation
                        JOINT RightForeArm
                        {
                            OFFSET -252.5614598644354 0.0 0.0
                            CHANNELS 3 Zrotation Xrotation Yrotation
                            JOINT RightHand
                            {
                                OFFSET -244.52565372849318 0.0 0.0
                                CHANNELS 3 Zrotation Xrotation Yrotation
                                End Site
                                {
                                    OFFSET -0.1 0.0 0.0
                                }
                            }
                        }
                    }
                }
            }
        }
    }
    JOINT RightHipJoint
    {
        OFFSET -0.1 0.0 0.0
        CHANNELS 3 Zrotation Xrotation Yrotation
        JOINT RightUpLeg
        {
            OFFSET -120.3080280478327 0.0 0.0
            CHANNELS 3 Zrotation Xrotation Yrotation
            JOINT RightLeg
            {
                OFFSET 0.0 0.0 -402.42527121865766
                CHANNELS 3 Zrotation Xrotation Yrotation
                JOINT RightFoot
                {
                    OFFSET 0.0 0.0 -389.3938392644692
                    CHANNELS 3 Zrotation Xrotation Yrotation
                    End Site
                    {
                        OFFSET 0.0 -0.1 0.0
                    }
                }
            }
        }
    }
}
MOTION
Frames: 6
Frame Time: 0.03333333333333333
0.0 0.0 799.2145264931581 26.25579481872511 -0.39668340855351597 8.563626275664708 0.0 0.0 0.0 -0.5392284955348843 -17.416839959233403 -4.470231906514168 -1.7206138451645705 32.78278868302274 -0.3483754072250038 0.0 0.0 -3.975693351829396e-16 0.0 0.0 0.0 -0.07365301004825461 -2.4502461059264617 -2.8411509049973995 2.9646361980741047 -3.8200953992294017e-16 6.064389370008563e-16 0.0 0.0 -1.987846675914698e-16 -32.2626297699241 14.078826971766395 77.01397432313583 -24.88988790003174 -4.958602929931096e-15 3.306766195026778e-16 -1.5902773407317584e-15 3.310429723537619e-32 -2.3854160110976376e-15 0.0 0.0 -1.987846675914698e-16 -11.277041037595394 0.4298394461550553 -7.066788399056355 0.0 0.0 -1.987846675914698e-16 -5.43116306859959 -29.398119422998107 -58.309162692035244 132.32104966823624 2.909194270707735e-15 1.2855025387220288e-15 0.0 0.0 0.0 0.0 0.0 0.0 -0.29027921428141956 -9.55997693210462 -7.014803013581732 -2.2694879353686748 23.244716395986472 -1.3764744087825602 -3.1805546814635168e-15 -1.1034765745125397e-32 3.975693351829396e-16
0.0 0.0 799.2145264931581 26.157631731082606 -0.417097863187252 8.57731331484684 0.0 0.0 -6.957463365701442e-16 -0.5459767728453137 -17.18085473844698 -4.474747389172414 -1.6667441883999599 32.368888157270796 -0.3277887979154344 0.0 0.0 3.975693351829396e-16 0.0 0.0 -6.957463365701442e-16 -0.07462935982636547 -2.4172088871529342 -2.8476456472367335 3.055140481734747 7.47163323866478e-16 -1.809622983443114e-15 0.0 0.0 -1.987846675914698e-16 -32.32914176236347 14.28238800440878 77.12116121644094 -25.02366780829304 -5.6093034850476425e-15 -1.1425787723276762e-14 0.0 0.0 2.3854160110976384e-15 0.0 0.0 -1.987846675914698e-16 -11.296718314066498 0.4098589149342794 -7.223321579814872 0.0 0.0 -1.987846675914698e-16 -5.254705974557736 -29.391645864935345 -58.114052479436204 131.9835512448549 -1.3892447456910964e-14 7.739386648918332e-15 0.0 0.0 0.0 0.0 0.0 -6.957463365701442e-16 -0.2987629850916723 -9.582101450085743 -6.999395406808459 -2.2171371837425746 23.011692466094516 -1.3948709688931566 0.0 0.0 0.0
0.0 0.0 799.2145264931581 25.95556873348265 0.07157526388849811 8.609763490915329 0.0 0.0 -7.951386703658792e-16 -0.5653422679293664 -18.008049997590582 -4.53762574833737 -1.7400708191883028 32.678067492533266 -0.2076026503026545 0.0 0.0 0.0 0.0 0.0 -7.951386703658792e-16 -0.07747881383466697 -2.548576681072965 -2.882579190134522 3.111787357243842 -7.570635228972024e-16 1.4125693564610557e-15 0.0 0.0 1.987846675914698e-16 -32.01605148891477 13.932576585085606 76.8645812240315 -25.15249082995488 -2.9371811280901495e-15 5.862223244499815e-15 0.0 0.0 1.987846675914698e-15 0.0 0.0 1.987846675914698e-16 -11.141811888037223 0.26379044065653984 -7.234067001937396 0.0 0.0 1.987846675914698e-16 -5.278029240795287 -29.772515260990346 -58.088012475711 131.4771251698537 -2.8996482112289065e-15 -1.3068926248535108e-15 0.0 0.0 0.0 0.0 0.0 -7.951386703658792e-16 -0.311473042958395 -10.139258943323334 -7.056615920064466 -2.2445551486226605 22.941596019478666 -1.3134249112287735 0.0 0.0 3.975693351829396e-16
0.0 0.0 799.2145264931581 26.178909097070875 0.08159262497501074 8.59313372663529 6.896728590703373e-34 3.975693351829396e-16 -1.987846675914698e-16 -0.5631375430596142 -17.811488938505693 -4.560343558994018 -1.7261439166882417 32.369811821807524 -0.08612431845034126 0.0 0.0 -7.951386703658792e-16 6.896728590703373e-34 3.975693351829396e-16 -1.987846675914698e-16 -0.07650998840369139 -2.49718059383877 -2.692425227490203 3.1687917384651167 1.1372892433951415e-15 -2.0200643480599977e-15 -3.1805546814635164e-15 -1.9878466759146975e-16 -3.9756933518293955e-16 -31.82588322768882 14.185247585070533 76.7066726096184 -25.45347704237549 -3.602600306307724e-15 -5.704642618166297e-15 0.0 0.0 -2.9817700138720468e-15 -3.1805546814635164e-15 -1.9878466759146975e-16 -3.9756933518293955e-16 -11.240930157224795 0.2934480637359315 -7.595824779182547 -3.1805546814635164e-15 -1.9878466759146975e-16 -3.9756933518293955e-16 -5.355110861191993 -29.44720374248895 -58.08696807926523 131.26138155470986 2.8971825630508847e-15 1.3123495259013115e-15 0.0 0.0 0.0 6.896728590703373e-34 3.975693351829396e-16 -1.987846675914698e-16 -0.31027468436845834 -10.023890365643705 -7.126210540366291 -2.2562614183970777 22.829285666896094 -1.1609978228744509 0.0 0.0 -3.975693351829396e-16
0.0 0.0 799.2145264931581 26.140553040207138 0.45785527534664017 8.655588178459915 0.0 0.0 -5.963540027744094e-16 -0.6169318809992818 -18.175254841686563 -4.712046557545368 -1.7412709166338647 32.45323582568791 0.016759548647644507 0.0 0.0 -3.975693351829396e-16 0.0 0.0 -5.963540027744094e-16 -0.08447110337545755 -2.5716992674648558 -2.774749752509299 3.2576906068650047 5.791617412219635e-16 -6.130643283986306e-16 -3.1805546814635168e-15 0.0 0.0 -31.28729355740976 13.935162381086135 76.45433039985204 -25.810640483551772 -2.7081982327946956e-15 1.1819570957285864e-14 -3.586298867165754e-32 1.5902773407317584e-15 2.5842006786891076e-15 -3.1805546814635168e-15 0.0 0.0 -11.261197226417817 0.22603257544254807 -7.596524811324208 -3.1805546814635168e-15 0.0 0.0 -5.403832526422507 -29.785751798302467 -57.96848577239013 130.5938410932248 -5.778977002273619e-15 -2.6584087598243017e-15 -7.951386703658794e-16 0.0 0.0 0.0 0.0 -5.963540027744094e-16 -0.3452229905640613 -10.395857569436444 -7.255582444529958 -2.2687369804673243 22.946279076364497 -1.083080492275135 0.0 0.0 0.0
0.0 0.0 799.2145264931581 26.14780556062748 0.5348163865559987 8.629775233545654 0.0 0.0 4.969616689786745e-17 -0.6150666980221582 -18.274377687981872 -4.630389841011301 -1.6857492528198794 32.24258368055703 -0.052119704779389056 0.0 0.0 -3.975693351829396e-16 0.0 0.0 4.969616689786745e-17 -0.08718368140785024 -2.6775789644856633 -2.783609788263625 3.335447129001688 -1.9580783434801804e-16 1.051354939815906e-16 0.0 0.0 9.93923337957349e-17 -31.465689025092857 13.841424041403057 76.48655820034203 -25.758276470361483 -1.767173065832347e-16 -6.36176065761212e-15 0.0 0.0 -5.963540027744094e-16 0.0 0.0 9.93923337957349e-17 -11.308005999002777 0.3937175224726062 -7.477001743581592 0.0 0.0 9.93923337957349e-17 -5.023464497551015 -29.671818271333304 -57.624025857094225 129.71644813278328 4.142191578020881e-15 -5.082808601406876e-15 0.0 0.0 0.0 0.0 0.0 4.969616689786745e-17 -0.3397860487888621 -10.32316272901821 -7.25722198407012 -2.2628877670594227 22.820689174468615 -0.9892429251043983 0.0 0.0 0.0
